<?xml version="1.0" standalone="no"?><svg xmlns="http://www.w3.org/2000/svg" viewBox="0 0 1440 320"><path fill="#FFA500" fill-opacity="1" d="M0,64L0,288L80,288L80,256L160,256L160,160L240,160L240,192L320,192L320,32L400,32L400,32L480,32L480,32L560,32L560,224L640,224L640,224L720,224L720,64L800,64L800,192L880,192L880,256L960,256L960,160L1040,160L1040,128L1120,128L1120,288L1200,288L1200,256L1280,256L1280,0L1360,0L1360,64L1440,64L1440,320L1360,320L1360,320L1280,320L1280,320L1200,320L1200,320L1120,320L1120,320L1040,320L1040,320L960,320L960,320L880,320L880,320L800,320L800,320L720,320L720,320L640,320L640,320L560,320L560,320L480,320L480,320L400,320L400,320L320,320L320,320L240,320L240,320L160,320L160,320L80,320L80,320L0,320L0,320Z"></path></svg>