<?xml version="1.0" standalone="no"?>
<svg xmlns:xlink="http://www.w3.org/1999/xlink" id="wave" style="transform:rotate(0deg); transition: 0.3s" viewBox="0 0 1440 370" version="1.1" xmlns="http://www.w3.org/2000/svg"><defs><linearGradient id="sw-gradient-0" x1="0" x2="0" y1="1" y2="0"><stop stop-color="rgba(255, 165, 0, 1)" offset="0%"/><stop stop-color="rgba(255, 179, 11, 1)" offset="100%"/></linearGradient></defs><path style="transform:translate(0, 0px); opacity:1" fill="url(#sw-gradient-0)" d="M0,296L26.7,259C53.3,222,107,148,160,141.8C213.3,136,267,197,320,234.3C373.3,271,427,284,480,277.5C533.3,271,587,247,640,203.5C693.3,160,747,99,800,111C853.3,123,907,210,960,252.8C1013.3,296,1067,296,1120,252.8C1173.3,210,1227,123,1280,123.3C1333.3,123,1387,210,1440,215.8C1493.3,222,1547,148,1600,98.7C1653.3,49,1707,25,1760,67.8C1813.3,111,1867,222,1920,265.2C1973.3,308,2027,284,2080,271.3C2133.3,259,2187,259,2240,215.8C2293.3,173,2347,86,2400,98.7C2453.3,111,2507,222,2560,265.2C2613.3,308,2667,284,2720,277.5C2773.3,271,2827,284,2880,252.8C2933.3,222,2987,148,3040,98.7C3093.3,49,3147,25,3200,67.8C3253.3,111,3307,222,3360,265.2C3413.3,308,3467,284,3520,234.3C3573.3,185,3627,111,3680,86.3C3733.3,62,3787,86,3813,98.7L3840,111L3840,370L3813.3,370C3786.7,370,3733,370,3680,370C3626.7,370,3573,370,3520,370C3466.7,370,3413,370,3360,370C3306.7,370,3253,370,3200,370C3146.7,370,3093,370,3040,370C2986.7,370,2933,370,2880,370C2826.7,370,2773,370,2720,370C2666.7,370,2613,370,2560,370C2506.7,370,2453,370,2400,370C2346.7,370,2293,370,2240,370C2186.7,370,2133,370,2080,370C2026.7,370,1973,370,1920,370C1866.7,370,1813,370,1760,370C1706.7,370,1653,370,1600,370C1546.7,370,1493,370,1440,370C1386.7,370,1333,370,1280,370C1226.7,370,1173,370,1120,370C1066.7,370,1013,370,960,370C906.7,370,853,370,800,370C746.7,370,693,370,640,370C586.7,370,533,370,480,370C426.7,370,373,370,320,370C266.7,370,213,370,160,370C106.7,370,53,370,27,370L0,370Z"/></svg>