<?xml version="1.0" standalone="no"?>
<svg xmlns:xlink="http://www.w3.org/1999/xlink" id="wave" style="transform:rotate(0deg); transition: 0.3s" viewBox="0 0 1440 250" version="1.1" xmlns="http://www.w3.org/2000/svg"><defs><linearGradient id="sw-gradient-0" x1="0" x2="0" y1="1" y2="0"><stop stop-color="rgba(255, 152, 0, 1)" offset="0%"/><stop stop-color="rgba(255, 179, 11, 1)" offset="100%"/></linearGradient></defs><path style="transform:translate(0, 0px); opacity:1" fill="url(#sw-gradient-0)" d="M0,125L16,133.3C32,142,64,158,96,141.7C128,125,160,75,192,70.8C224,67,256,108,288,112.5C320,117,352,83,384,79.2C416,75,448,100,480,129.2C512,158,544,192,576,170.8C608,150,640,75,672,41.7C704,8,736,17,768,16.7C800,17,832,8,864,41.7C896,75,928,150,960,179.2C992,208,1024,192,1056,154.2C1088,117,1120,58,1152,62.5C1184,67,1216,133,1248,145.8C1280,158,1312,117,1344,95.8C1376,75,1408,75,1440,62.5C1472,50,1504,25,1536,41.7C1568,58,1600,117,1632,120.8C1664,125,1696,75,1728,70.8C1760,67,1792,108,1824,125C1856,142,1888,133,1920,145.8C1952,158,1984,192,2016,195.8C2048,200,2080,175,2112,166.7C2144,158,2176,167,2208,145.8C2240,125,2272,75,2288,50L2304,25L2304,250L2288,250C2272,250,2240,250,2208,250C2176,250,2144,250,2112,250C2080,250,2048,250,2016,250C1984,250,1952,250,1920,250C1888,250,1856,250,1824,250C1792,250,1760,250,1728,250C1696,250,1664,250,1632,250C1600,250,1568,250,1536,250C1504,250,1472,250,1440,250C1408,250,1376,250,1344,250C1312,250,1280,250,1248,250C1216,250,1184,250,1152,250C1120,250,1088,250,1056,250C1024,250,992,250,960,250C928,250,896,250,864,250C832,250,800,250,768,250C736,250,704,250,672,250C640,250,608,250,576,250C544,250,512,250,480,250C448,250,416,250,384,250C352,250,320,250,288,250C256,250,224,250,192,250C160,250,128,250,96,250C64,250,32,250,16,250L0,250Z"/></svg>